<?xml version="1.0" standalone="no"?>
<!DOCTYPE svg PUBLIC "-//W3C//DTD SVG 20010904//EN"
 "http://www.w3.org/TR/2001/REC-SVG-20010904/DTD/svg10.dtd">
<svg version="1.0" xmlns="http://www.w3.org/2000/svg"
 width="700.000000pt" height="700.000000pt" viewBox="0 0 700.000000 700.000000"
 preserveAspectRatio="xMidYMid meet">
<metadata>
Created by potrace 1.14, written by Peter Selinger 2001-2017
</metadata>
<g transform="translate(0.000000,700.000000) scale(0.100000,-0.100000)"
fill="#000000" stroke="none">
<path d="M5808 5375 c-2 -1 -50 -6 -108 -9 -58 -3 -121 -8 -140 -11 -19 -2
-57 -7 -84 -11 -27 -3 -56 -7 -65 -9 -9 -1 -41 -6 -71 -10 -30 -4 -64 -9 -75
-11 -11 -2 -33 -7 -50 -9 -16 -3 -93 -21 -170 -41 -606 -152 -1035 -426 -1328
-849 -54 -78 -66 -98 -133 -220 -95 -172 -227 -550 -260 -745 -3 -14 -9 -47
-14 -75 -18 -96 -25 -139 -35 -235 -4 -30 -8 -66 -10 -79 -9 -53 -23 -277 -24
-388 -1 -44 -5 -63 -13 -63 -7 0 -49 38 -94 83 l-81 82 -2 100 c-2 55 -4 114
-5 130 -9 86 -18 173 -21 195 -2 14 -6 45 -10 70 -3 25 -15 88 -26 140 -166
789 -594 1229 -1374 1410 -91 21 -101 23 -245 44 -153 23 -261 29 -478 29
-136 0 -197 -4 -205 -12 -8 -8 -12 -73 -13 -219 -1 -218 12 -396 42 -562 2
-14 7 -41 10 -60 12 -76 74 -300 109 -395 214 -574 617 -907 1281 -1060 88
-20 108 -24 219 -39 147 -21 197 -26 335 -32 l125 -5 85 -85 84 -84 -197 -198
-197 -197 168 -168 c92 -92 170 -167 173 -167 3 0 156 149 339 332 l335 331
85 3 c95 2 289 13 335 19 17 2 50 6 75 10 25 3 63 8 85 10 22 3 76 12 120 20
44 8 96 17 115 20 19 3 53 11 75 16 22 6 47 12 55 14 36 7 112 29 215 62 684
221 1116 620 1368 1263 65 167 135 416 162 575 4 22 9 49 10 60 2 11 7 38 10
59 3 22 7 51 9 65 4 23 8 51 21 166 21 186 22 711 1 732 -5 6 -512 14 -518 8z"/>
</g>
</svg>
