<?xml version="1.0" standalone="no"?><!DOCTYPE svg PUBLIC "-//W3C//DTD SVG 1.1//EN" "http://www.w3.org/Graphics/SVG/1.1/DTD/svg11.dtd"><svg t="1626909560783" class="icon" viewBox="0 0 1024 1024" version="1.1" xmlns="http://www.w3.org/2000/svg" p-id="2081" xmlns:xlink="http://www.w3.org/1999/xlink" width="200" height="200"><defs><style type="text/css">@font-face { font-family: feedback-iconfont; src: url("//at.alicdn.com/t/font_1031158_1uhr8ri0pk5.eot?#iefix") format("embedded-opentype"), url("//at.alicdn.com/t/font_1031158_1uhr8ri0pk5.woff2") format("woff2"), url("//at.alicdn.com/t/font_1031158_1uhr8ri0pk5.woff") format("woff"), url("//at.alicdn.com/t/font_1031158_1uhr8ri0pk5.ttf") format("truetype"), url("//at.alicdn.com/t/font_1031158_1uhr8ri0pk5.svg#iconfont") format("svg"); }
</style></defs><path d="M826 589.3C950.4 465 926.1 239.1 926.1 239.1s-225.9-24.3-350.2 100.1C487.1 428 474.2 568.1 474 641.2l-2.1 2.1-25.2-25.2c-0.1-56.2-10.1-163.8-78.3-231.9-95.5-95.5-268.9-76.9-268.9-76.9s-18.6 173.5 76.8 269c68.2 68.2 175.8 78.1 232 78.3l25.2 25.2-57.7 57.7 50 50 57.7-57.7 0.2 0.2 38.4-38.4-0.2-0.2 2.1-2.1c73.2-0.2 213.3-13.2 302-102z" p-id="2082" fill="#0bbb35"></path></svg>